<?xml version="1.0" encoding="utf-8"?>
<!-- Generator: Adobe Illustrator 28.1.0, SVG Export Plug-In . SVG Version: 6.00 Build 0)  -->
<svg version="1.1" id="Isolation_Mode" xmlns="http://www.w3.org/2000/svg" xmlns:xlink="http://www.w3.org/1999/xlink" x="0px"
	 y="0px" viewBox="0 0 1920 1080" style="enable-background:new 0 0 1920 1080;" xml:space="preserve">
<style type="text/css">
	.st0{fill:#1D1D1B;}
	.st1{font-family:'SignStyleDEMO';}
	.st2{font-size:605.4163px;}
	.st3{letter-spacing:-34;}
</style>
<g>
	<text transform="matrix(1 0 0 1 44.1772 738.8787)"><tspan x="0" y="0" class="st0 st1 st2">Alla</tspan><tspan x="556.96" y="0" class="st0 st1 st2 st3">nB</tspan><tspan x="1087.29" y="0" class="st0 st1 st2">anuelos</tspan></text>
	<g>
		<path class="st0" d="M1329.01,530.76c2.01,0,3.63,0.61,4.84,1.82c0.81,1.62,1.21,2.63,1.21,3.03c0,2.42-1.01,4.64-3.03,6.66
			c-2.03,2.02-4.54,3.43-7.57,4.24c-3.03,0.81-5.96,1.21-8.78,1.21c-5.66,0-10.2-1.71-13.62-5.15c-3.43-3.42-6.77-5.15-9.99-5.15
			c-4.04,0.41-7.37,2.02-9.99,4.84c-2.63,2.83-5.55,4.24-8.78,4.24c-2.42,0-3.63-1.41-3.63-4.24c0-2.02,0.2-3.42,0.61-4.24
			c0.81-2.01,2.42-4.03,4.84-6.05c2.42-2.01,5.45-3.23,9.08-3.63c5.24,0,10.59,1.92,16.04,5.75c5.45,3.84,10.39,5.75,14.83,5.75
			c2.82,0,5.04-1.51,6.66-4.54C1323.36,532.27,1325.78,530.76,1329.01,530.76z"/>
	</g>
</g>
</svg>
